<svg width="512" height="512" viewBox="0 0 512 512" fill="none" xmlns="http://www.w3.org/2000/svg">
<g clip-path="url(#clip0_148_22819)">
<rect x="-104" y="184" width="550" height="550" rx="275" fill="#222527"/>
<path d="M67.4074 309.185C70.9213 309.185 74.6696 310.729 78.6521 313.817C83.6186 317.701 87.0154 319.642 88.8427 319.642C91.5602 319.642 92.9189 318.239 92.9189 315.431C92.9189 313.887 92.1224 312.577 90.5294 311.501C89.686 310.939 84.9539 309.138 76.3329 306.097C62.2301 301.137 55.1787 291.966 55.1787 278.584C55.1787 268.477 58.9035 260.499 66.3532 254.65C72.8658 249.55 80.9245 247 90.5294 247C98.8224 247 106.038 248.989 112.176 252.966C118.313 256.896 121.382 261.973 121.382 268.196C121.382 271.939 120.211 275.074 117.868 277.601C115.572 280.081 112.574 281.321 108.872 281.321C104.984 281.321 100.673 279.473 95.9409 275.776C92.9892 273.483 90.7637 272.337 89.2644 272.337C86.6874 272.337 85.399 273.6 85.399 276.127C85.399 278.513 88.585 280.689 94.957 282.654C103.765 285.415 110.583 288.784 115.408 292.761C121.827 298.095 125.037 305.582 125.037 315.221C125.037 325.702 121.429 333.89 114.214 339.786C107.514 345.26 98.799 347.998 88.0696 347.998C77.3402 347.998 68.4616 345.143 61.4336 339.435C55.8112 334.896 53 329.585 53 323.503C53 319.432 54.3822 316.04 57.1465 313.326C59.9108 310.612 63.3311 309.232 67.4074 309.185Z" fill="white"/>
<path d="M162.59 267.167V304.857C162.59 312.156 165.518 315.806 171.375 315.806C177.231 315.806 180.16 312.296 180.16 305.278V267.097C180.16 263.587 180.253 261.318 180.441 260.289C180.816 258.323 181.823 256.358 183.463 254.393C186.649 250.463 190.725 248.497 195.691 248.497C200.705 248.497 204.828 250.416 208.061 254.253C210.544 257.2 211.785 262.277 211.785 269.483V303.313C211.785 315.852 208.459 325.912 201.806 333.492C193.513 342.897 183.369 347.6 171.375 347.6C164.019 347.6 157.084 345.635 150.572 341.704C142.279 336.698 136.492 329.539 133.213 320.227C131.713 315.969 130.964 310.331 130.964 303.313V269.483C130.964 265.552 131.057 262.956 131.245 261.692C131.667 259.072 132.697 256.732 134.337 254.674C137.57 250.556 141.74 248.497 146.847 248.497C151.392 248.497 155.257 250.158 158.443 253.481C161.207 256.335 162.59 260.897 162.59 267.167Z" fill="white"/>
<path d="M274.78 292.317L290.733 258.417C293.357 252.802 298.019 249.995 304.719 249.995C313.527 249.995 318.798 254.908 320.532 264.734L331.566 326.497C331.894 328.322 332.058 330.124 332.058 331.902C332.058 336.206 330.535 339.833 327.489 342.78C324.491 345.728 320.813 347.202 316.455 347.202C312.567 347.202 309.17 346.126 306.265 343.974C303.36 341.821 301.533 338.873 300.783 335.13L297.269 317.163L291.014 334.148C287.828 342.851 282.417 347.202 274.78 347.202C267.236 347.202 261.871 342.897 258.685 334.288L252.36 317.163L249.76 332.463C249.01 336.908 247.347 340.347 244.77 342.78C241.678 345.728 238.07 347.202 233.947 347.202C228.278 347.202 223.897 344.98 220.805 340.534C218.884 337.774 217.923 334.265 217.923 330.007C217.923 328.743 218.04 327.456 218.275 326.146L229.098 264.734C229.847 260.429 231.534 256.966 234.158 254.346C236.969 251.445 240.483 249.995 244.7 249.995C248.12 249.995 251.259 250.977 254.117 252.942C257.022 254.861 259.177 257.388 260.583 260.523L274.78 292.317Z" fill="white"/>
<path d="M388.328 247.002C398.074 246.909 407.023 249.459 415.175 254.653C423.328 259.8 429.512 266.608 433.729 275.077C437.243 282.095 439 289.535 439 297.396C439 306.239 436.821 314.521 432.464 322.242C428.107 329.962 422.156 336.115 414.613 340.701C406.601 345.567 397.746 348 388.047 348C378.63 348 369.821 345.473 361.622 340.42C353.47 335.32 347.308 328.535 343.138 320.066C339.624 312.954 337.867 305.14 337.867 296.624C337.867 289.605 339.39 282.821 342.436 276.27C346.606 267.239 352.837 260.104 361.13 254.863C369.236 249.716 378.302 247.096 388.328 247.002Z" fill="white"/>
<path d="M72.36 368.264C72.616 368.435 72.7653 368.659 72.808 368.936C72.8507 369.192 72.7867 369.448 72.616 369.704C72.4667 369.896 72.2747 370.003 72.04 370.024C71.8053 370.045 71.5813 370.003 71.368 369.896C70.5573 369.363 69.6827 368.947 68.744 368.648C67.8267 368.349 66.8347 368.2 65.768 368.2C64.4667 368.2 63.2507 368.435 62.12 368.904C61.0107 369.352 60.04 370.013 59.208 370.888C58.376 371.741 57.7253 372.755 57.256 373.928C56.808 375.101 56.584 376.392 56.584 377.8C56.584 379.251 56.8187 380.573 57.288 381.768C57.7573 382.941 58.408 383.955 59.24 384.808C60.0933 385.661 61.0747 386.312 62.184 386.76C63.2933 387.208 64.488 387.432 65.768 387.432C66.8133 387.432 67.7947 387.283 68.712 386.984C69.6507 386.685 70.5253 386.28 71.336 385.768C71.5493 385.64 71.7733 385.597 72.008 385.64C72.264 385.661 72.4667 385.779 72.616 385.992C72.808 386.227 72.872 386.483 72.808 386.76C72.7653 387.016 72.6267 387.219 72.392 387.368C71.8587 387.709 71.2293 388.029 70.504 388.328C69.7787 388.627 69.0107 388.861 68.2 389.032C67.3893 389.224 66.5787 389.32 65.768 389.32C64.232 389.32 62.792 389.043 61.448 388.488C60.104 387.933 58.9093 387.155 57.864 386.152C56.8187 385.128 55.9973 383.912 55.4 382.504C54.824 381.096 54.536 379.528 54.536 377.8C54.536 376.136 54.824 374.611 55.4 373.224C55.976 371.816 56.776 370.6 57.8 369.576C58.824 368.552 60.0187 367.752 61.384 367.176C62.7493 366.6 64.2107 366.312 65.768 366.312C66.984 366.312 68.1573 366.483 69.288 366.824C70.4187 367.165 71.4427 367.645 72.36 368.264ZM78.0023 389C77.6823 389 77.4156 388.904 77.2023 388.712C77.0103 388.52 76.9143 388.296 76.9143 388.04V367.56C76.9143 367.304 77.0103 367.08 77.2023 366.888C77.3943 366.696 77.6183 366.6 77.8743 366.6H86.5143C87.7303 366.6 88.8183 366.867 89.7783 367.4C90.7383 367.912 91.4849 368.627 92.0183 369.544C92.5729 370.461 92.8503 371.496 92.8503 372.648C92.8503 373.587 92.6796 374.451 92.3383 375.24C91.9969 376.029 91.5169 376.701 90.8983 377.256C90.2796 377.789 89.5863 378.184 88.8183 378.44L87.6983 378.088C88.4876 378.152 89.2236 378.408 89.9062 378.856C90.5889 379.283 91.1329 379.88 91.5382 380.648C91.9649 381.395 92.1889 382.301 92.2103 383.368C92.2316 384.285 92.2743 385 92.3383 385.512C92.4236 386.024 92.5409 386.408 92.6903 386.664C92.8396 386.92 93.0316 387.123 93.2663 387.272C93.4796 387.4 93.6183 387.581 93.6823 387.816C93.7676 388.051 93.7463 388.275 93.6183 388.488C93.5329 388.659 93.4049 388.787 93.2343 388.872C93.0849 388.936 92.9249 388.968 92.7543 388.968C92.5836 388.968 92.4129 388.925 92.2423 388.84C91.9436 388.669 91.6343 388.403 91.3143 388.04C91.0156 387.677 90.7596 387.144 90.5463 386.44C90.3543 385.736 90.2583 384.755 90.2583 383.496C90.2583 382.664 90.1196 381.981 89.8423 381.448C89.5863 380.915 89.2449 380.509 88.8183 380.232C88.4129 379.933 87.9543 379.731 87.4423 379.624C86.9516 379.496 86.4823 379.432 86.0343 379.432H78.5783L78.9303 378.984V388.04C78.9303 388.296 78.8449 388.52 78.6743 388.712C78.5036 388.904 78.2796 389 78.0023 389ZM78.5783 377.672H86.6103C87.3356 377.608 88.0183 377.373 88.6583 376.968C89.2983 376.541 89.8103 375.965 90.1943 375.24C90.5996 374.515 90.8022 373.672 90.8022 372.712C90.8022 371.496 90.3863 370.493 89.5543 369.704C88.7436 368.893 87.6769 368.488 86.3543 368.488H78.7063L78.9303 368.04V378.12L78.5783 377.672ZM99.3118 366.6H111.056C111.312 366.6 111.536 366.696 111.728 366.888C111.92 367.059 112.016 367.283 112.016 367.56C112.016 367.837 111.92 368.061 111.728 368.232C111.536 368.403 111.312 368.488 111.056 368.488H100.048L100.368 367.944V376.936L100.016 376.52H109.616C109.872 376.52 110.096 376.616 110.288 376.808C110.48 377 110.576 377.224 110.576 377.48C110.576 377.757 110.48 377.981 110.288 378.152C110.096 378.323 109.872 378.408 109.616 378.408H100.08L100.368 378.088V387.304L100.208 387.112H111.056C111.312 387.112 111.536 387.208 111.728 387.4C111.92 387.592 112.016 387.816 112.016 388.072C112.016 388.349 111.92 388.573 111.728 388.744C111.536 388.915 111.312 389 111.056 389H99.3118C99.0558 389 98.8318 388.904 98.6398 388.712C98.4478 388.52 98.3518 388.296 98.3518 388.04V367.56C98.3518 367.304 98.4478 367.08 98.6398 366.888C98.8318 366.696 99.0558 366.6 99.3118 366.6ZM124.027 369.064L116.251 388.392C116.166 388.605 116.049 388.765 115.899 388.872C115.75 388.979 115.579 389.032 115.387 389.032C115.089 389.032 114.865 388.957 114.715 388.808C114.566 388.637 114.481 388.435 114.459 388.2C114.438 388.093 114.449 387.965 114.491 387.816L122.939 367.144C123.046 366.909 123.174 366.749 123.323 366.664C123.494 366.557 123.686 366.504 123.899 366.504C124.113 366.504 124.294 366.568 124.443 366.696C124.614 366.803 124.742 366.952 124.827 367.144L133.243 387.72C133.286 387.848 133.307 387.976 133.307 388.104C133.307 388.403 133.211 388.637 133.019 388.808C132.827 388.957 132.603 389.032 132.347 389.032C132.134 389.032 131.942 388.979 131.771 388.872C131.622 388.744 131.505 388.584 131.419 388.392L123.451 368.936L124.027 369.064ZM118.107 382.536L118.907 380.648H128.827L129.211 382.536H118.107ZM142.32 389C142.022 389 141.776 388.904 141.584 388.712C141.414 388.52 141.328 388.296 141.328 388.04V367.656H143.312V388.04C143.312 388.296 143.216 388.52 143.024 388.712C142.832 388.904 142.598 389 142.32 389ZM134.704 368.424C134.448 368.424 134.224 368.339 134.032 368.168C133.84 367.997 133.744 367.773 133.744 367.496C133.744 367.24 133.84 367.027 134.032 366.856C134.224 366.685 134.448 366.6 134.704 366.6H149.936C150.192 366.6 150.416 366.685 150.608 366.856C150.8 367.027 150.896 367.251 150.896 367.528C150.896 367.805 150.8 368.029 150.608 368.2C150.416 368.349 150.192 368.424 149.936 368.424H134.704ZM156.993 388.008C156.971 388.285 156.854 388.52 156.641 388.712C156.449 388.904 156.225 389 155.969 389C155.67 389 155.425 388.904 155.233 388.712C155.062 388.52 154.977 388.285 154.977 388.008V367.592C154.977 367.315 155.073 367.08 155.265 366.888C155.457 366.696 155.702 366.6 156.001 366.6C156.257 366.6 156.481 366.696 156.673 366.888C156.886 367.08 156.993 367.315 156.993 367.592V388.008ZM179.169 366.568C179.467 366.568 179.702 366.653 179.873 366.824C180.065 366.995 180.161 367.208 180.161 367.464C180.161 367.613 180.129 367.773 180.065 367.944L171.521 388.36C171.414 388.573 171.275 388.733 171.105 388.84C170.934 388.947 170.763 389 170.593 389C170.401 389 170.219 388.947 170.049 388.84C169.878 388.733 169.761 388.584 169.697 388.392L161.185 368.008C161.163 367.944 161.142 367.869 161.121 367.784C161.099 367.699 161.089 367.603 161.089 367.496C161.089 367.219 161.185 366.995 161.377 366.824C161.59 366.653 161.803 366.568 162.017 366.568C162.465 366.568 162.785 366.803 162.977 367.272L170.977 386.408H170.401L178.273 367.208C178.486 366.781 178.785 366.568 179.169 366.568ZM185.218 366.6H196.962C197.218 366.6 197.442 366.696 197.634 366.888C197.826 367.059 197.922 367.283 197.922 367.56C197.922 367.837 197.826 368.061 197.634 368.232C197.442 368.403 197.218 368.488 196.962 368.488H185.954L186.274 367.944V376.936L185.922 376.52H195.522C195.778 376.52 196.002 376.616 196.194 376.808C196.386 377 196.482 377.224 196.482 377.48C196.482 377.757 196.386 377.981 196.194 378.152C196.002 378.323 195.778 378.408 195.522 378.408H185.986L186.274 378.088V387.304L186.114 387.112H196.962C197.218 387.112 197.442 387.208 197.634 387.4C197.826 387.592 197.922 387.816 197.922 388.072C197.922 388.349 197.826 388.573 197.634 388.744C197.442 388.915 197.218 389 196.962 389H185.218C184.962 389 184.738 388.904 184.546 388.712C184.354 388.52 184.258 388.296 184.258 388.04V367.56C184.258 367.304 184.354 367.08 184.546 366.888C184.738 366.696 184.962 366.6 185.218 366.6ZM217.852 389C217.553 389 217.308 388.904 217.116 388.712C216.945 388.52 216.86 388.296 216.86 388.04V367.656H218.844V388.04C218.844 388.296 218.748 388.52 218.556 388.712C218.364 388.904 218.129 389 217.852 389ZM210.236 368.424C209.98 368.424 209.756 368.339 209.564 368.168C209.372 367.997 209.276 367.773 209.276 367.496C209.276 367.24 209.372 367.027 209.564 366.856C209.756 366.685 209.98 366.6 210.236 366.6H225.468C225.724 366.6 225.948 366.685 226.14 366.856C226.332 367.027 226.428 367.251 226.428 367.528C226.428 367.805 226.332 368.029 226.14 368.2C225.948 368.349 225.724 368.424 225.468 368.424H210.236ZM249.851 377.8C249.851 379.485 249.584 381.032 249.051 382.44C248.539 383.827 247.803 385.043 246.843 386.088C245.883 387.112 244.742 387.912 243.419 388.488C242.118 389.043 240.688 389.32 239.131 389.32C237.574 389.32 236.134 389.043 234.811 388.488C233.51 387.912 232.379 387.112 231.419 386.088C230.459 385.043 229.712 383.827 229.179 382.44C228.667 381.032 228.411 379.485 228.411 377.8C228.411 376.115 228.667 374.579 229.179 373.192C229.712 371.784 230.459 370.568 231.419 369.544C232.379 368.499 233.51 367.699 234.811 367.144C236.134 366.568 237.574 366.28 239.131 366.28C240.688 366.28 242.118 366.568 243.419 367.144C244.742 367.699 245.883 368.499 246.843 369.544C247.803 370.568 248.539 371.784 249.051 373.192C249.584 374.579 249.851 376.115 249.851 377.8ZM247.803 377.8C247.803 375.901 247.43 374.237 246.683 372.808C245.958 371.357 244.944 370.227 243.643 369.416C242.342 368.605 240.838 368.2 239.131 368.2C237.446 368.2 235.942 368.605 234.619 369.416C233.318 370.227 232.294 371.357 231.547 372.808C230.822 374.237 230.459 375.901 230.459 377.8C230.459 379.699 230.822 381.373 231.547 382.824C232.294 384.253 233.318 385.373 234.619 386.184C235.942 386.995 237.446 387.4 239.131 387.4C240.838 387.4 242.342 386.995 243.643 386.184C244.944 385.373 245.958 384.253 246.683 382.824C247.43 381.373 247.803 379.699 247.803 377.8ZM274.351 377.8C274.351 379.485 274.084 381.032 273.551 382.44C273.039 383.827 272.303 385.043 271.343 386.088C270.383 387.112 269.242 387.912 267.919 388.488C266.618 389.043 265.188 389.32 263.631 389.32C262.074 389.32 260.634 389.043 259.311 388.488C258.01 387.912 256.879 387.112 255.919 386.088C254.959 385.043 254.212 383.827 253.679 382.44C253.167 381.032 252.911 379.485 252.911 377.8C252.911 376.115 253.167 374.579 253.679 373.192C254.212 371.784 254.959 370.568 255.919 369.544C256.879 368.499 258.01 367.699 259.311 367.144C260.634 366.568 262.074 366.28 263.631 366.28C265.188 366.28 266.618 366.568 267.919 367.144C269.242 367.699 270.383 368.499 271.343 369.544C272.303 370.568 273.039 371.784 273.551 373.192C274.084 374.579 274.351 376.115 274.351 377.8ZM272.303 377.8C272.303 375.901 271.93 374.237 271.183 372.808C270.458 371.357 269.444 370.227 268.143 369.416C266.842 368.605 265.338 368.2 263.631 368.2C261.946 368.2 260.442 368.605 259.119 369.416C257.818 370.227 256.794 371.357 256.047 372.808C255.322 374.237 254.959 375.901 254.959 377.8C254.959 379.699 255.322 381.373 256.047 382.824C256.794 384.253 257.818 385.373 259.119 386.184C260.442 386.995 261.946 387.4 263.631 387.4C265.338 387.4 266.842 386.995 268.143 386.184C269.444 385.373 270.458 384.253 271.183 382.824C271.93 381.373 272.303 379.699 272.303 377.8ZM291.267 387.112C291.523 387.112 291.747 387.208 291.939 387.4C292.131 387.571 292.227 387.784 292.227 388.04C292.227 388.317 292.131 388.552 291.939 388.744C291.747 388.915 291.523 389 291.267 389H279.843C279.566 389 279.331 388.904 279.139 388.712C278.968 388.52 278.883 388.296 278.883 388.04V367.56C278.883 367.304 278.979 367.08 279.171 366.888C279.363 366.696 279.608 366.6 279.907 366.6C280.163 366.6 280.387 366.696 280.579 366.888C280.792 367.08 280.899 367.304 280.899 367.56V387.656L280.291 387.112H291.267ZM302.09 389.32C300.469 389.341 299.061 389.085 297.866 388.552C296.672 388.019 295.53 387.219 294.442 386.152C294.336 386.067 294.24 385.96 294.154 385.832C294.09 385.704 294.058 385.555 294.058 385.384C294.058 385.128 294.154 384.893 294.346 384.68C294.56 384.467 294.794 384.36 295.05 384.36C295.306 384.36 295.541 384.467 295.754 384.68C296.586 385.576 297.525 386.259 298.57 386.728C299.637 387.197 300.778 387.432 301.994 387.432C303.018 387.432 303.925 387.272 304.714 386.952C305.525 386.632 306.165 386.173 306.634 385.576C307.104 384.979 307.338 384.285 307.338 383.496C307.338 382.515 307.072 381.725 306.538 381.128C306.005 380.509 305.301 380.008 304.426 379.624C303.552 379.219 302.581 378.856 301.514 378.536C300.64 378.28 299.808 377.992 299.018 377.672C298.229 377.331 297.525 376.925 296.906 376.456C296.288 375.965 295.808 375.368 295.466 374.664C295.125 373.96 294.954 373.107 294.954 372.104C294.954 370.973 295.253 369.971 295.85 369.096C296.448 368.221 297.29 367.539 298.378 367.048C299.488 366.536 300.768 366.28 302.218 366.28C303.477 366.28 304.682 366.493 305.834 366.92C307.008 367.347 307.936 367.976 308.618 368.808C308.938 369.149 309.098 369.459 309.098 369.736C309.098 369.949 308.992 370.163 308.778 370.376C308.565 370.589 308.33 370.696 308.074 370.696C307.861 370.696 307.68 370.621 307.53 370.472C307.168 370.024 306.709 369.629 306.154 369.288C305.6 368.925 304.981 368.648 304.298 368.456C303.637 368.264 302.944 368.168 302.218 368.168C301.216 368.168 300.309 368.328 299.498 368.648C298.709 368.947 298.08 369.384 297.61 369.96C297.162 370.536 296.938 371.229 296.938 372.04C296.938 372.936 297.194 373.672 297.706 374.248C298.218 374.824 298.89 375.304 299.722 375.688C300.554 376.051 301.44 376.392 302.378 376.712C303.296 376.968 304.17 377.267 305.002 377.608C305.856 377.928 306.602 378.333 307.242 378.824C307.904 379.315 308.416 379.933 308.778 380.68C309.162 381.427 309.354 382.365 309.354 383.496C309.354 384.584 309.045 385.565 308.426 386.44C307.808 387.315 306.954 388.008 305.866 388.52C304.8 389.032 303.541 389.299 302.09 389.32ZM323.625 389C323.326 389 323.081 388.904 322.889 388.712C322.718 388.52 322.633 388.296 322.633 388.04V367.56C322.633 367.304 322.729 367.08 322.921 366.888C323.113 366.696 323.337 366.6 323.593 366.6H335.241C335.518 366.6 335.742 366.696 335.913 366.888C336.105 367.059 336.201 367.283 336.201 367.56C336.201 367.816 336.105 368.04 335.913 368.232C335.742 368.403 335.518 368.488 335.241 368.488H324.457L324.585 368.296V376.808L324.425 376.52H333.801C334.078 376.52 334.302 376.616 334.473 376.808C334.665 376.979 334.761 377.192 334.761 377.448C334.761 377.725 334.665 377.949 334.473 378.12C334.302 378.291 334.078 378.376 333.801 378.376H324.361L324.585 378.12V388.04C324.585 388.296 324.489 388.52 324.297 388.712C324.126 388.904 323.902 389 323.625 389ZM360.445 377.8C360.445 379.485 360.178 381.032 359.645 382.44C359.133 383.827 358.397 385.043 357.437 386.088C356.477 387.112 355.335 387.912 354.013 388.488C352.711 389.043 351.282 389.32 349.725 389.32C348.167 389.32 346.727 389.043 345.405 388.488C344.103 387.912 342.973 387.112 342.013 386.088C341.053 385.043 340.306 383.827 339.773 382.44C339.261 381.032 339.005 379.485 339.005 377.8C339.005 376.115 339.261 374.579 339.773 373.192C340.306 371.784 341.053 370.568 342.013 369.544C342.973 368.499 344.103 367.699 345.405 367.144C346.727 366.568 348.167 366.28 349.725 366.28C351.282 366.28 352.711 366.568 354.013 367.144C355.335 367.699 356.477 368.499 357.437 369.544C358.397 370.568 359.133 371.784 359.645 373.192C360.178 374.579 360.445 376.115 360.445 377.8ZM358.397 377.8C358.397 375.901 358.023 374.237 357.277 372.808C356.551 371.357 355.538 370.227 354.237 369.416C352.935 368.605 351.431 368.2 349.725 368.2C348.039 368.2 346.535 368.605 345.213 369.416C343.911 370.227 342.887 371.357 342.141 372.808C341.415 374.237 341.053 375.901 341.053 377.8C341.053 379.699 341.415 381.373 342.141 382.824C342.887 384.253 343.911 385.373 345.213 386.184C346.535 386.995 348.039 387.4 349.725 387.4C351.431 387.4 352.935 386.995 354.237 386.184C355.538 385.373 356.551 384.253 357.277 382.824C358.023 381.373 358.397 379.699 358.397 377.8ZM366.065 389C365.745 389 365.478 388.904 365.265 388.712C365.073 388.52 364.977 388.296 364.977 388.04V367.56C364.977 367.304 365.073 367.08 365.265 366.888C365.457 366.696 365.681 366.6 365.937 366.6H374.577C375.793 366.6 376.881 366.867 377.841 367.4C378.801 367.912 379.547 368.627 380.081 369.544C380.635 370.461 380.913 371.496 380.913 372.648C380.913 373.587 380.742 374.451 380.401 375.24C380.059 376.029 379.579 376.701 378.961 377.256C378.342 377.789 377.649 378.184 376.881 378.44L375.761 378.088C376.55 378.152 377.286 378.408 377.969 378.856C378.651 379.283 379.195 379.88 379.601 380.648C380.027 381.395 380.251 382.301 380.273 383.368C380.294 384.285 380.337 385 380.401 385.512C380.486 386.024 380.603 386.408 380.753 386.664C380.902 386.92 381.094 387.123 381.329 387.272C381.542 387.4 381.681 387.581 381.745 387.816C381.83 388.051 381.809 388.275 381.681 388.488C381.595 388.659 381.467 388.787 381.297 388.872C381.147 388.936 380.987 388.968 380.817 388.968C380.646 388.968 380.475 388.925 380.305 388.84C380.006 388.669 379.697 388.403 379.377 388.04C379.078 387.677 378.822 387.144 378.609 386.44C378.417 385.736 378.321 384.755 378.321 383.496C378.321 382.664 378.182 381.981 377.905 381.448C377.649 380.915 377.307 380.509 376.881 380.232C376.475 379.933 376.017 379.731 375.505 379.624C375.014 379.496 374.545 379.432 374.097 379.432H366.641L366.993 378.984V388.04C366.993 388.296 366.907 388.52 366.737 388.712C366.566 388.904 366.342 389 366.065 389ZM366.641 377.672H374.673C375.398 377.608 376.081 377.373 376.721 376.968C377.361 376.541 377.873 375.965 378.257 375.24C378.662 374.515 378.865 373.672 378.865 372.712C378.865 371.496 378.449 370.493 377.617 369.704C376.806 368.893 375.739 368.488 374.417 368.488H366.769L366.993 368.04V378.12L366.641 377.672Z" fill="white"/>
<path d="M71.08 399.688C71.6347 399.965 71.9547 400.403 72.04 401C72.1467 401.597 71.9973 402.141 71.592 402.632C71.3147 403.016 70.952 403.229 70.504 403.272C70.0773 403.315 69.64 403.229 69.192 403.016C68.68 402.781 68.136 402.6 67.56 402.472C67.0053 402.344 66.4187 402.28 65.8 402.28C64.648 402.28 63.6133 402.461 62.696 402.824C61.8 403.187 61.032 403.709 60.392 404.392C59.752 405.053 59.2613 405.843 58.92 406.76C58.6 407.677 58.44 408.691 58.44 409.8C58.44 411.101 58.6213 412.232 58.984 413.192C59.368 414.152 59.8907 414.952 60.552 415.592C61.2133 416.232 61.992 416.712 62.888 417.032C63.784 417.331 64.7547 417.48 65.8 417.48C66.376 417.48 66.952 417.427 67.528 417.32C68.104 417.213 68.6587 417.021 69.192 416.744C69.64 416.531 70.0773 416.456 70.504 416.52C70.952 416.584 71.3253 416.808 71.624 417.192C72.0507 417.725 72.2 418.28 72.072 418.856C71.9653 419.411 71.6453 419.816 71.112 420.072C70.5573 420.349 69.9813 420.584 69.384 420.776C68.808 420.947 68.2213 421.075 67.624 421.16C67.0267 421.267 66.4187 421.32 65.8 421.32C64.264 421.32 62.8027 421.075 61.416 420.584C60.0507 420.093 58.824 419.368 57.736 418.408C56.6693 417.448 55.8267 416.253 55.208 414.824C54.5893 413.373 54.28 411.699 54.28 409.8C54.28 408.157 54.5573 406.643 55.112 405.256C55.688 403.869 56.488 402.675 57.512 401.672C58.5573 400.648 59.784 399.859 61.192 399.304C62.6 398.728 64.136 398.44 65.8 398.44C66.7387 398.44 67.656 398.547 68.552 398.76C69.448 398.973 70.2907 399.283 71.08 399.688ZM91.3665 398.568C91.9212 398.568 92.3692 398.76 92.7105 399.144C93.0518 399.507 93.2225 399.965 93.2225 400.52V412.104C93.2225 413.875 92.8385 415.443 92.0705 416.808C91.3238 418.173 90.2892 419.24 88.9665 420.008C87.6438 420.776 86.1078 421.16 84.3585 421.16C82.6092 421.16 81.0625 420.776 79.7185 420.008C78.3958 419.24 77.3505 418.173 76.5825 416.808C75.8358 415.443 75.4625 413.875 75.4625 412.104V400.52C75.4625 399.965 75.6545 399.507 76.0385 399.144C76.4225 398.76 76.9132 398.568 77.5105 398.568C78.0012 398.568 78.4385 398.76 78.8225 399.144C79.2278 399.507 79.4305 399.965 79.4305 400.52V412.104C79.4305 413.171 79.6545 414.099 80.1025 414.888C80.5718 415.656 81.1798 416.253 81.9265 416.68C82.6945 417.107 83.5052 417.32 84.3585 417.32C85.2758 417.32 86.1292 417.107 86.9185 416.68C87.7078 416.253 88.3478 415.656 88.8385 414.888C89.3292 414.099 89.5745 413.171 89.5745 412.104V400.52C89.5745 399.965 89.7345 399.507 90.0545 399.144C90.3745 398.76 90.8118 398.568 91.3665 398.568ZM100.329 421C99.7317 421 99.1983 420.819 98.729 420.456C98.2597 420.072 98.025 419.603 98.025 419.048V400.552C98.025 399.997 98.2063 399.539 98.569 399.176C98.953 398.792 99.4223 398.6 99.977 398.6H109.193C110.302 398.6 111.337 398.899 112.297 399.496C113.278 400.072 114.068 400.883 114.665 401.928C115.262 402.952 115.561 404.136 115.561 405.48C115.561 406.291 115.39 407.08 115.049 407.848C114.729 408.616 114.281 409.309 113.705 409.928C113.15 410.547 112.521 411.027 111.817 411.368L111.849 410.632C112.446 410.952 112.937 411.336 113.321 411.784C113.726 412.211 114.036 412.68 114.249 413.192C114.484 413.683 114.622 414.216 114.665 414.792C114.75 415.325 114.804 415.795 114.825 416.2C114.868 416.605 114.932 416.947 115.017 417.224C115.124 417.501 115.316 417.715 115.593 417.864C116.062 418.141 116.35 418.547 116.457 419.08C116.585 419.592 116.468 420.051 116.105 420.456C115.87 420.733 115.572 420.915 115.209 421C114.846 421.064 114.484 421.064 114.121 421C113.758 420.915 113.46 420.808 113.225 420.68C112.862 420.467 112.5 420.157 112.137 419.752C111.774 419.325 111.476 418.76 111.241 418.056C111.028 417.352 110.921 416.445 110.921 415.336C110.921 414.973 110.857 414.643 110.729 414.344C110.601 414.024 110.42 413.757 110.185 413.544C109.95 413.309 109.652 413.139 109.289 413.032C108.926 412.904 108.5 412.84 108.009 412.84H101.545L102.025 412.104V419.048C102.025 419.603 101.876 420.072 101.577 420.456C101.278 420.819 100.862 421 100.329 421ZM101.577 409.544H109.033C109.417 409.544 109.79 409.373 110.153 409.032C110.516 408.669 110.814 408.189 111.049 407.592C111.284 406.973 111.401 406.301 111.401 405.576C111.401 404.637 111.145 403.859 110.633 403.24C110.142 402.6 109.609 402.28 109.033 402.28H101.641L102.025 401.256V410.312L101.577 409.544ZM123.994 419.048C123.994 419.603 123.791 420.072 123.386 420.456C122.98 420.819 122.511 421 121.978 421C121.38 421 120.9 420.819 120.538 420.456C120.175 420.072 119.994 419.603 119.994 419.048V400.552C119.994 399.997 120.186 399.539 120.57 399.176C120.954 398.792 121.444 398.6 122.042 398.6C122.554 398.6 123.002 398.792 123.386 399.176C123.791 399.539 123.994 399.997 123.994 400.552V419.048ZM149.414 409.8C149.414 411.4 149.148 412.893 148.614 414.28C148.081 415.667 147.324 416.893 146.342 417.96C145.382 419.005 144.23 419.827 142.886 420.424C141.564 421.021 140.113 421.32 138.534 421.32C136.956 421.32 135.505 421.021 134.182 420.424C132.86 419.827 131.708 419.005 130.726 417.96C129.766 416.893 129.02 415.667 128.486 414.28C127.953 412.893 127.686 411.4 127.686 409.8C127.686 408.2 127.953 406.707 128.486 405.32C129.02 403.933 129.766 402.717 130.726 401.672C131.708 400.605 132.86 399.773 134.182 399.176C135.505 398.579 136.956 398.28 138.534 398.28C140.113 398.28 141.564 398.579 142.886 399.176C144.23 399.773 145.382 400.605 146.342 401.672C147.324 402.717 148.081 403.933 148.614 405.32C149.148 406.707 149.414 408.2 149.414 409.8ZM145.254 409.8C145.254 408.371 144.966 407.08 144.39 405.928C143.814 404.755 143.025 403.827 142.022 403.144C141.02 402.461 139.857 402.12 138.534 402.12C137.212 402.12 136.049 402.461 135.046 403.144C134.044 403.827 133.254 404.744 132.678 405.896C132.124 407.048 131.846 408.349 131.846 409.8C131.846 411.229 132.124 412.531 132.678 413.704C133.254 414.856 134.044 415.773 135.046 416.456C136.049 417.139 137.212 417.48 138.534 417.48C139.857 417.48 141.02 417.139 142.022 416.456C143.025 415.773 143.814 414.856 144.39 413.704C144.966 412.531 145.254 411.229 145.254 409.8ZM168.992 398.568C169.546 398.568 169.994 398.76 170.336 399.144C170.677 399.507 170.848 399.965 170.848 400.52V412.104C170.848 413.875 170.464 415.443 169.696 416.808C168.949 418.173 167.914 419.24 166.592 420.008C165.269 420.776 163.733 421.16 161.984 421.16C160.234 421.16 158.688 420.776 157.344 420.008C156.021 419.24 154.976 418.173 154.208 416.808C153.461 415.443 153.088 413.875 153.088 412.104V400.52C153.088 399.965 153.28 399.507 153.664 399.144C154.048 398.76 154.538 398.568 155.136 398.568C155.626 398.568 156.064 398.76 156.448 399.144C156.853 399.507 157.056 399.965 157.056 400.52V412.104C157.056 413.171 157.28 414.099 157.728 414.888C158.197 415.656 158.805 416.253 159.552 416.68C160.32 417.107 161.13 417.32 161.984 417.32C162.901 417.32 163.754 417.107 164.544 416.68C165.333 416.253 165.973 415.656 166.464 414.888C166.954 414.099 167.2 413.171 167.2 412.104V400.52C167.2 399.965 167.36 399.507 167.68 399.144C168 398.76 168.437 398.568 168.992 398.568ZM182.538 421.32C181.044 421.32 179.7 421.139 178.506 420.776C177.311 420.392 176.17 419.731 175.082 418.792C174.804 418.557 174.591 418.291 174.442 417.992C174.292 417.693 174.218 417.395 174.218 417.096C174.218 416.605 174.388 416.179 174.73 415.816C175.092 415.432 175.54 415.24 176.074 415.24C176.479 415.24 176.842 415.368 177.161 415.624C177.972 416.285 178.772 416.787 179.562 417.128C180.372 417.469 181.364 417.64 182.538 417.64C183.327 417.64 184.052 417.523 184.714 417.288C185.375 417.032 185.908 416.701 186.314 416.296C186.719 415.869 186.922 415.389 186.922 414.856C186.922 414.216 186.73 413.672 186.346 413.224C185.962 412.776 185.375 412.403 184.586 412.104C183.796 411.784 182.794 411.539 181.578 411.368C180.426 411.197 179.412 410.941 178.538 410.6C177.663 410.237 176.927 409.789 176.33 409.256C175.754 408.701 175.316 408.061 175.018 407.336C174.719 406.589 174.57 405.757 174.57 404.84C174.57 403.453 174.922 402.269 175.626 401.288C176.351 400.307 177.322 399.56 178.538 399.048C179.754 398.536 181.098 398.28 182.57 398.28C183.956 398.28 185.236 398.493 186.41 398.92C187.604 399.325 188.575 399.848 189.322 400.488C189.94 400.979 190.25 401.544 190.25 402.184C190.25 402.653 190.068 403.08 189.706 403.464C189.343 403.848 188.916 404.04 188.426 404.04C188.106 404.04 187.818 403.944 187.562 403.752C187.22 403.453 186.762 403.176 186.186 402.92C185.61 402.643 185.002 402.419 184.362 402.248C183.722 402.056 183.124 401.96 182.57 401.96C181.652 401.96 180.874 402.077 180.234 402.312C179.615 402.547 179.146 402.867 178.826 403.272C178.506 403.677 178.346 404.147 178.346 404.68C178.346 405.32 178.527 405.853 178.89 406.28C179.274 406.685 179.818 407.016 180.522 407.272C181.226 407.507 182.068 407.72 183.05 407.912C184.33 408.147 185.45 408.424 186.41 408.744C187.391 409.064 188.202 409.48 188.842 409.992C189.482 410.483 189.962 411.112 190.282 411.88C190.602 412.627 190.762 413.544 190.762 414.632C190.762 416.019 190.378 417.213 189.61 418.216C188.842 419.219 187.828 419.987 186.57 420.52C185.332 421.053 183.988 421.32 182.538 421.32ZM205.416 398.568C205.715 398.568 206.024 398.653 206.344 398.824C206.685 398.973 206.941 399.176 207.112 399.432L214.888 411.4L213.288 411.336L221.256 399.432C221.661 398.856 222.184 398.568 222.824 398.568C223.336 398.568 223.795 398.749 224.2 399.112C224.605 399.475 224.808 399.944 224.808 400.52V419.048C224.808 419.603 224.627 420.072 224.264 420.456C223.901 420.819 223.421 421 222.824 421C222.227 421 221.736 420.819 221.352 420.456C220.989 420.072 220.808 419.603 220.808 419.048V403.976L222.056 404.264L215.528 414.216C215.336 414.451 215.091 414.653 214.792 414.824C214.515 414.995 214.227 415.069 213.928 415.048C213.651 415.069 213.363 414.995 213.064 414.824C212.787 414.653 212.552 414.451 212.36 414.216L206.248 404.552L207.08 402.856V419.048C207.08 419.603 206.909 420.072 206.568 420.456C206.227 420.819 205.779 421 205.224 421C204.691 421 204.253 420.819 203.912 420.456C203.571 420.072 203.4 419.603 203.4 419.048V400.52C203.4 399.987 203.592 399.528 203.976 399.144C204.381 398.76 204.861 398.568 205.416 398.568ZM233.619 419.048C233.619 419.603 233.416 420.072 233.011 420.456C232.605 420.819 232.136 421 231.603 421C231.005 421 230.525 420.819 230.163 420.456C229.8 420.072 229.619 419.603 229.619 419.048V400.552C229.619 399.997 229.811 399.539 230.195 399.176C230.579 398.792 231.069 398.6 231.667 398.6C232.179 398.6 232.627 398.792 233.011 399.176C233.416 399.539 233.619 399.997 233.619 400.552V419.048ZM255.423 398.6C255.935 398.6 256.351 398.771 256.671 399.112C256.991 399.453 257.151 399.88 257.151 400.392V419.048C257.151 419.603 256.959 420.072 256.575 420.456C256.213 420.819 255.754 421 255.199 421C254.922 421 254.634 420.957 254.335 420.872C254.058 420.765 253.845 420.627 253.695 420.456L241.119 404.488L241.951 403.976V419.208C241.951 419.72 241.781 420.147 241.439 420.488C241.119 420.829 240.693 421 240.159 421C239.647 421 239.231 420.829 238.911 420.488C238.591 420.147 238.431 419.72 238.431 419.208V400.552C238.431 399.997 238.613 399.539 238.975 399.176C239.359 398.792 239.829 398.6 240.383 398.6C240.682 398.6 240.991 398.664 241.311 398.792C241.631 398.899 241.866 399.069 242.015 399.304L254.207 414.856L253.663 415.24V400.392C253.663 399.88 253.823 399.453 254.143 399.112C254.463 398.771 254.89 398.6 255.423 398.6ZM271.563 398.6C273.099 398.6 274.464 398.888 275.659 399.464C276.853 400.04 277.856 400.851 278.667 401.896C279.499 402.92 280.117 404.115 280.523 405.48C280.949 406.824 281.163 408.264 281.163 409.8C281.163 411.869 280.789 413.757 280.043 415.464C279.296 417.149 278.208 418.493 276.779 419.496C275.371 420.499 273.632 421 271.563 421H263.915C263.36 421 262.891 420.819 262.507 420.456C262.144 420.072 261.963 419.603 261.963 419.048V400.552C261.963 399.997 262.144 399.539 262.507 399.176C262.891 398.792 263.36 398.6 263.915 398.6H271.563ZM271.243 417.32C272.587 417.32 273.685 416.979 274.539 416.296C275.392 415.592 276.011 414.675 276.395 413.544C276.8 412.392 277.003 411.144 277.003 409.8C277.003 408.797 276.885 407.848 276.651 406.952C276.437 406.035 276.096 405.235 275.627 404.552C275.157 403.848 274.56 403.293 273.835 402.888C273.109 402.483 272.245 402.28 271.243 402.28H265.643L265.963 401.992V417.672L265.771 417.32H271.243ZM292.038 421.32C290.544 421.32 289.2 421.139 288.006 420.776C286.811 420.392 285.67 419.731 284.582 418.792C284.304 418.557 284.091 418.291 283.942 417.992C283.792 417.693 283.718 417.395 283.718 417.096C283.718 416.605 283.888 416.179 284.23 415.816C284.592 415.432 285.04 415.24 285.574 415.24C285.979 415.24 286.342 415.368 286.661 415.624C287.472 416.285 288.272 416.787 289.062 417.128C289.872 417.469 290.864 417.64 292.038 417.64C292.827 417.64 293.552 417.523 294.214 417.288C294.875 417.032 295.408 416.701 295.814 416.296C296.219 415.869 296.422 415.389 296.422 414.856C296.422 414.216 296.23 413.672 295.846 413.224C295.462 412.776 294.875 412.403 294.086 412.104C293.296 411.784 292.294 411.539 291.078 411.368C289.926 411.197 288.912 410.941 288.038 410.6C287.163 410.237 286.427 409.789 285.83 409.256C285.254 408.701 284.816 408.061 284.518 407.336C284.219 406.589 284.07 405.757 284.07 404.84C284.07 403.453 284.422 402.269 285.126 401.288C285.851 400.307 286.822 399.56 288.038 399.048C289.254 398.536 290.598 398.28 292.07 398.28C293.456 398.28 294.736 398.493 295.91 398.92C297.104 399.325 298.075 399.848 298.822 400.488C299.44 400.979 299.75 401.544 299.75 402.184C299.75 402.653 299.568 403.08 299.206 403.464C298.843 403.848 298.416 404.04 297.926 404.04C297.606 404.04 297.318 403.944 297.062 403.752C296.72 403.453 296.262 403.176 295.686 402.92C295.11 402.643 294.502 402.419 293.862 402.248C293.222 402.056 292.624 401.96 292.07 401.96C291.152 401.96 290.374 402.077 289.734 402.312C289.115 402.547 288.646 402.867 288.326 403.272C288.006 403.677 287.846 404.147 287.846 404.68C287.846 405.32 288.027 405.853 288.39 406.28C288.774 406.685 289.318 407.016 290.022 407.272C290.726 407.507 291.568 407.72 292.55 407.912C293.83 408.147 294.95 408.424 295.91 408.744C296.891 409.064 297.702 409.48 298.342 409.992C298.982 410.483 299.462 411.112 299.782 411.88C300.102 412.627 300.262 413.544 300.262 414.632C300.262 416.019 299.878 417.213 299.11 418.216C298.342 419.219 297.328 419.987 296.07 420.52C294.832 421.053 293.488 421.32 292.038 421.32Z" fill="#549CE2"/>
</g>
<defs>
<clipPath id="clip0_148_22819">
<rect width="512" height="512" fill="white"/>
</clipPath>
</defs>
</svg>
